<?xml version="1.0" standalone="no"?>
<!DOCTYPE svg PUBLIC "-//W3C//DTD SVG 20010904//EN"
 "http://www.w3.org/TR/2001/REC-SVG-20010904/DTD/svg10.dtd">
<svg version="1.0" xmlns="http://www.w3.org/2000/svg"
 width="1280.000000pt" height="1280.000000pt" viewBox="0 0 1280.000000 1280.000000"
 preserveAspectRatio="xMidYMid meet">
<metadata>
Created by potrace 1.15, written by Peter Selinger 2001-2017
</metadata>
<g transform="translate(0.000000,1280.000000) scale(0.100000,-0.100000)"
fill="#e92020" stroke="none">
<path d="M6055 12149 c-433 -24 -907 -100 -1274 -205 -995 -285 -1868 -834
-2624 -1649 -591 -637 -987 -1303 -1245 -2095 -207 -633 -302 -1409 -262
-2116 41 -705 156 -1245 393 -1839 365 -917 1018 -1766 1872 -2434 986 -771
2150 -1162 3470 -1164 658 -1 1225 83 1805 268 1002 320 1919 950 2647 1819
884 1054 1317 2264 1316 3676 -1 622 -75 1139 -244 1705 -257 860 -728 1635
-1415 2331 -712 719 -1495 1199 -2409 1476 -602 182 -1341 265 -2030 227z
m-1660 -2614 c147 -18 330 -60 492 -114 371 -124 699 -316 1033 -607 88 -76
348 -334 452 -447 l44 -49 69 79 c399 451 868 801 1295 966 361 140 670 196
1014 184 303 -10 578 -80 871 -221 601 -290 1034 -843 1209 -1545 119 -477
113 -966 -18 -1472 -230 -887 -698 -1643 -1530 -2475 -544 -543 -1183 -1028
-2001 -1521 -252 -151 -890 -506 -911 -506 -6 0 -105 51 -220 113 -1325 717
-2225 1386 -2977 2210 -477 523 -798 1000 -1015 1510 -162 378 -250 679 -309
1050 -26 165 -26 635 0 800 60 381 180 722 352 1000 187 301 467 583 749 752
237 143 531 248 815 293 118 18 438 18 586 0z"/>
<path d="M3447 7313 c-4 -8 6 -1205 18 -2130 l7 -553 226 0 225 0 -6 493 c-4
270 -10 854 -14 1297 -3 443 -6 825 -7 850 l-1 45 -222 3 c-122 1 -223 -1
-226 -5z"/>
<path d="M3995 6583 c4 -406 11 -1010 14 -1343 l6 -605 223 0 223 0 -1 345 c0
190 -5 737 -10 1215 -5 479 -10 927 -10 998 l0 127 -226 0 -227 0 8 -737z"/>
<path d="M8330 7183 c-1 -509 24 -2550 30 -2557 5 -4 105 -5 226 -1 l217 8 -8
876 c-4 482 -11 1085 -14 1341 l-6 465 -222 3 -223 2 0 -137z"/>
<path d="M8991 7313 l-114 -4 6 -862 c4 -474 10 -1079 14 -1344 l6 -483 225 0
225 0 -8 738 c-4 405 -11 1012 -14 1347 l-6 610 -110 1 c-60 0 -161 -1 -224
-3z"/>
<path d="M9460 5975 l0 -615 180 0 180 0 2 198 3 197 88 3 87 3 0 199 0 200
-90 0 -90 0 0 215 0 215 -180 0 -180 0 0 -615z"/>
<path d="M2970 6385 l0 -195 -85 0 -85 0 0 -200 0 -200 85 0 85 0 0 -220 0
-220 180 0 180 0 0 615 0 615 -180 0 -180 0 0 -195z"/>
<path d="M4560 5970 l0 -200 1840 0 1840 0 -2 198 -3 197 -1837 3 -1838 2 0
-200z"/>
</g>
</svg>
