<?xml version="1.0" standalone="no"?>
<!DOCTYPE svg PUBLIC "-//W3C//DTD SVG 20010904//EN"
 "http://www.w3.org/TR/2001/REC-SVG-20010904/DTD/svg10.dtd">
<svg version="1.0" xmlns="http://www.w3.org/2000/svg"
 width="1280.000000pt" height="970.000000pt" viewBox="0 0 1280.000000 970.000000"
 preserveAspectRatio="xMidYMid meet">
<metadata>
Created by potrace 1.15, written by Peter Selinger 2001-2017
</metadata>
<g transform="translate(0.000000,970.000000) scale(0.100000,-0.100000)"
fill="#e92020" stroke="none">
<path d="M5292 9674 c-24 -15 -50 -41 -61 -62 -10 -20 -27 -53 -37 -72 -18
-34 -26 -82 -40 -220 -6 -64 -5 -67 29 -111 56 -74 58 -81 37 -117 -11 -18
-31 -34 -47 -38 -156 -35 -302 -104 -364 -170 -55 -59 -116 -163 -181 -304
-50 -109 -55 -129 -38 -159 7 -13 1 -43 -20 -107 -31 -93 -38 -173 -20 -228
79 -247 110 -425 103 -577 -7 -144 -1 -179 39 -218 30 -29 37 -31 105 -31 40
0 73 4 73 8 0 5 -14 21 -31 38 -46 44 -52 58 -35 99 8 19 20 35 25 35 12 0 41
-52 41 -75 0 -8 5 -15 10 -15 16 0 12 156 -5 198 -9 20 -35 56 -58 80 l-42 43
3 217 c2 178 0 230 -14 290 -17 71 -17 74 3 100 11 15 29 28 41 30 13 2 32 23
51 57 56 100 68 89 81 -76 5 -68 14 -139 21 -157 7 -21 9 -55 5 -89 -9 -77 12
-395 35 -533 10 -63 19 -137 19 -165 1 -53 32 -177 74 -288 27 -71 45 -145 76
-314 26 -145 25 -143 66 -143 31 0 36 -5 60 -52 38 -76 84 -133 129 -162 57
-38 81 -34 131 20 37 39 46 44 63 35 42 -23 66 -74 116 -254 23 -81 65 -127
115 -127 68 0 90 40 90 163 0 76 -3 87 -35 142 -61 104 -84 158 -94 225 -9 53
-16 70 -42 94 -28 25 -38 28 -80 24 -41 -4 -49 -2 -49 12 0 9 9 25 20 35 23
20 26 72 10 152 -17 87 -29 187 -23 193 10 10 44 -46 95 -159 29 -62 66 -129
83 -147 29 -30 38 -34 83 -34 28 0 63 5 77 12 36 16 54 -5 64 -73 9 -68 31
-109 125 -234 41 -54 107 -153 146 -218 67 -109 73 -124 81 -195 6 -52 5 -109
-3 -176 -12 -93 -11 -99 7 -113 28 -21 173 -13 209 10 32 21 33 44 6 127 -11
34 -20 85 -20 113 0 39 -8 64 -35 113 -19 34 -35 76 -35 93 0 16 -4 52 -9 78
-5 26 -15 77 -21 113 -42 228 -105 390 -187 481 -44 49 -55 80 -40 119 11 29
7 39 -52 158 -36 70 -79 150 -96 177 -18 28 -47 79 -65 115 -19 36 -48 90 -66
120 -18 30 -38 75 -44 100 -22 90 -57 147 -166 275 -48 58 -56 73 -61 119 -4
40 -1 64 16 101 11 26 21 66 21 89 0 22 9 70 20 104 11 35 20 74 20 85 0 47
15 53 62 27 24 -13 76 -48 115 -79 63 -47 78 -55 110 -53 45 4 75 -23 118
-103 38 -69 107 -138 176 -175 99 -53 116 -71 121 -136 4 -52 9 -61 47 -96 40
-38 43 -39 66 -24 13 9 34 16 45 16 25 0 60 -54 60 -92 0 -42 20 -45 51 -8 39
46 44 80 21 132 -18 41 -47 66 -152 130 -14 9 -57 72 -100 149 -67 121 -85
145 -182 239 -90 89 -106 109 -102 130 4 20 -8 40 -57 95 -34 39 -94 111 -135
162 -149 186 -259 258 -440 284 -40 6 -79 17 -85 25 -20 24 -1 106 37 159 37
53 44 97 20 143 -7 15 -16 51 -20 81 -10 78 -74 189 -125 219 -53 29 -105 28
-159 -4z"/>
<path d="M11425 9594 c-22 -19 -54 -43 -71 -52 -108 -59 -135 -72 -148 -72 -8
0 -52 -28 -98 -62 -95 -71 -195 -134 -328 -208 -74 -41 -118 -57 -214 -80 -66
-15 -132 -32 -146 -38 -14 -6 -83 -15 -155 -21 -71 -6 -155 -14 -185 -17 -138
-15 -188 -5 -247 52 -49 47 -51 56 -22 151 10 32 10 48 2 65 -7 13 -14 53 -16
90 -6 85 -35 144 -89 182 -36 26 -53 30 -123 34 -73 4 -87 2 -133 -22 -81 -41
-92 -66 -92 -214 0 -117 1 -126 36 -210 19 -48 38 -95 41 -104 4 -13 -10 -24
-63 -48 -38 -17 -88 -34 -112 -37 -24 -3 -59 -17 -78 -30 -19 -13 -52 -32 -72
-42 -20 -11 -48 -36 -62 -57 -26 -40 -95 -96 -194 -159 -35 -22 -78 -52 -95
-67 -18 -15 -60 -43 -94 -63 -34 -19 -93 -62 -132 -96 -38 -33 -83 -68 -100
-76 -61 -31 -75 -52 -75 -112 0 -62 23 -115 59 -139 20 -14 22 -13 28 6 7 28
39 29 55 2 18 -28 38 -25 38 5 0 14 6 41 14 60 8 19 18 55 22 81 6 45 8 47 68
75 98 45 104 45 159 0 48 -40 111 -62 127 -45 4 5 15 33 25 62 9 29 27 65 39
79 38 44 170 81 181 51 3 -8 -4 -39 -16 -69 -12 -30 -35 -94 -51 -144 -29 -90
-29 -90 -17 -195 9 -82 18 -116 41 -156 15 -28 28 -57 28 -63 0 -6 -25 -53
-55 -104 -30 -50 -56 -96 -58 -102 -2 -6 -10 -4 -21 4 -14 12 -22 11 -57 -4
-35 -16 -45 -17 -72 -6 -42 17 -73 15 -111 -7 -44 -26 -54 -62 -34 -120 9 -26
19 -67 23 -92 6 -44 5 -47 -48 -105 -77 -86 -124 -165 -170 -285 -30 -78 -41
-124 -44 -179 -6 -88 -1 -110 33 -150 23 -28 31 -31 85 -31 84 0 125 24 254
150 61 59 125 117 143 130 38 25 96 29 162 9 34 -11 43 -10 59 5 10 9 22 35
25 58 7 45 77 138 103 138 18 0 12 -25 -28 -104 -40 -82 -38 -106 16 -173 35
-43 45 -63 45 -92 0 -52 -38 -162 -64 -186 -11 -11 -32 -36 -45 -55 -14 -19
-50 -62 -81 -95 -42 -44 -77 -100 -134 -211 -43 -84 -98 -176 -123 -205 -58
-69 -148 -205 -168 -252 -15 -35 -14 -37 9 -52 17 -11 69 -18 187 -25 90 -6
199 -15 242 -22 75 -11 79 -11 100 11 l22 22 -52 49 c-34 31 -71 54 -105 65
-59 19 -98 50 -98 76 0 21 79 94 176 160 62 43 83 66 147 162 41 62 91 129
111 149 20 20 36 46 36 58 0 35 25 83 70 135 24 28 51 68 61 90 18 42 58 84
96 104 39 20 58 68 124 326 11 43 27 91 34 105 10 20 11 35 3 66 -10 37 -8 47
25 115 81 167 88 192 252 874 26 105 52 208 59 230 17 50 66 89 225 178 64 36
132 82 151 102 19 20 47 43 62 51 15 8 37 32 48 54 15 30 29 42 58 49 67 19
317 248 399 366 19 27 31 32 113 48 83 16 93 16 122 1 23 -12 33 -13 42 -4 8
8 4 16 -16 32 -16 11 -28 23 -28 28 0 5 32 18 70 30 39 12 68 26 64 31 -3 5
-29 9 -57 9 l-52 1 38 32 c55 48 45 74 -18 45 -28 -13 -45 -4 -27 14 7 7 12
18 12 25 0 23 -34 13 -75 -23z"/>
<path d="M8299 6261 c-121 -25 -198 -143 -187 -284 9 -104 57 -175 145 -217
50 -23 184 -28 230 -8 52 22 111 77 134 125 29 59 32 177 7 234 -20 46 -82
115 -121 136 -34 17 -155 26 -208 14z"/>
<path d="M4990 6191 c-46 -15 -85 -39 -116 -73 -51 -54 -64 -89 -64 -175 0
-71 3 -84 33 -133 25 -44 44 -62 92 -87 131 -71 274 -27 358 109 25 40 23 176
-2 227 -22 42 -74 92 -123 117 -36 19 -140 28 -178 15z"/>
<path d="M7168 5510 c-24 -12 -57 -20 -87 -20 -51 0 -67 -13 -54 -46 8 -22
-44 -73 -85 -80 -40 -8 -47 -20 -32 -59 10 -26 7 -35 -36 -98 -67 -98 -124
-151 -201 -187 -37 -18 -78 -41 -92 -51 -13 -10 -39 -19 -57 -19 -34 0 -34 0
-34 -49 0 -34 -8 -63 -26 -95 -33 -60 -27 -83 34 -123 54 -35 160 -160 196
-232 25 -50 65 -176 90 -281 9 -37 18 -142 21 -245 6 -193 24 -329 55 -422 54
-162 152 -344 231 -428 24 -26 31 -45 40 -114 16 -120 3 -379 -21 -427 -16
-31 -18 -52 -13 -158 l6 -123 -33 -6 c-18 -4 -114 -7 -214 -7 -307 0 -518 -21
-651 -65 -100 -34 -204 -53 -328 -61 -97 -6 -112 -10 -140 -33 -54 -44 -75
-73 -117 -156 -141 -284 -306 -546 -352 -561 -14 -4 -52 -73 -127 -227 -59
-122 -122 -258 -140 -302 -59 -143 -72 -169 -116 -231 -44 -61 -82 -94 -109
-94 -8 0 -33 16 -57 35 -48 41 -68 41 -87 1 -12 -23 -12 -36 -1 -73 12 -45 12
-46 -17 -67 -16 -11 -56 -46 -89 -77 -37 -34 -99 -76 -160 -108 -99 -52 -155
-97 -155 -127 0 -29 50 -62 121 -79 83 -21 140 -17 287 16 l103 22 92 -26 c51
-15 118 -27 148 -27 63 0 147 35 173 71 23 33 21 126 -4 183 -17 41 -18 50 -6
88 18 59 33 90 85 183 77 137 157 228 286 324 106 80 252 224 305 301 45 66
102 177 124 244 9 27 28 68 42 92 22 38 31 44 57 44 46 -1 98 -22 169 -68 56
-36 75 -42 173 -57 61 -9 126 -20 145 -25 19 -6 50 -10 69 -10 18 0 50 -4 70
-10 20 -5 48 -12 63 -15 19 -4 38 -21 61 -58 46 -71 107 -123 192 -162 61 -28
84 -33 185 -39 66 -4 138 -2 168 4 29 5 152 12 275 15 214 6 340 20 457 49
110 28 206 59 253 81 44 21 52 22 85 10 20 -7 64 -21 97 -32 37 -11 119 -57
225 -126 91 -59 183 -112 205 -118 22 -6 56 -18 75 -26 101 -45 183 -53 246
-24 36 17 47 30 83 101 38 76 41 88 41 164 0 49 8 109 19 151 11 39 27 120 36
180 9 61 27 136 41 168 44 106 30 369 -27 523 -21 55 -61 101 -168 193 -35 30
-70 69 -77 87 -8 18 -22 37 -31 43 -16 8 -18 26 -18 148 1 132 2 141 29 193
16 30 42 70 57 88 16 18 29 43 29 57 0 13 14 57 30 98 27 68 30 86 30 189 0
109 -1 116 -29 160 -39 61 -92 119 -138 151 -86 60 -325 83 -408 40 -52 -27
-66 -43 -112 -133 -22 -41 -46 -88 -55 -105 -26 -49 -42 -204 -45 -459 l-4
-239 -102 6 c-56 3 -127 13 -157 23 -30 9 -84 18 -120 18 -60 1 -71 -3 -134
-42 -37 -23 -73 -42 -80 -42 -7 0 -62 51 -123 113 l-110 112 -33 100 c-50 153
-99 261 -141 318 -25 32 -41 66 -45 95 -4 28 -20 61 -42 90 -36 46 -37 49 -43
162 -4 87 -11 127 -27 163 -12 27 -22 53 -22 59 0 20 -151 309 -207 395 -31
49 -68 112 -81 142 -42 91 -40 241 3 241 9 0 15 -9 15 -25 0 -14 12 -54 26
-90 21 -52 40 -78 93 -127 93 -85 151 -110 274 -116 84 -4 106 -1 160 19 104
39 152 73 202 149 80 120 89 149 82 268 -5 92 -10 114 -40 177 -19 40 -51 91
-71 113 -46 51 -172 116 -254 133 -123 24 -263 -22 -377 -123 -29 -27 -56 -48
-60 -48 -22 0 38 184 106 330 41 86 49 113 47 150 -3 40 -6 45 -28 48 -14 1
-42 -7 -62 -18z"/>
<path d="M11975 5502 c-57 -27 -120 -84 -145 -132 -87 -162 -20 -366 145 -442
41 -19 66 -23 140 -22 109 0 145 14 220 85 75 71 99 134 92 244 -5 97 -26 141
-94 206 -71 69 -103 82 -208 86 -83 4 -95 2 -150 -25z"/>
<path d="M2380 5501 c-79 -17 -176 -93 -213 -166 -40 -81 -51 -215 -23 -293
15 -41 15 -47 -5 -92 -11 -26 -36 -62 -54 -80 l-34 -33 -173 -2 c-189 -2 -189
-2 -400 -81 -65 -24 -153 -49 -195 -56 -86 -12 -109 -26 -118 -68 -8 -36 -19
-44 -80 -59 -81 -19 -241 -104 -368 -195 -139 -100 -300 -223 -361 -275 -45
-39 -62 -47 -160 -76 -112 -32 -182 -125 -193 -255 -5 -57 -2 -69 17 -92 12
-16 26 -28 32 -28 6 0 26 -13 45 -30 42 -37 59 -37 111 -2 61 41 99 96 127
184 14 43 32 92 40 107 17 34 129 95 258 140 48 17 112 42 142 56 31 14 82 36
115 50 33 14 109 59 169 100 64 43 125 77 147 81 42 8 356 -2 392 -12 21 -6
23 -11 17 -38 -4 -17 -9 -107 -12 -201 -5 -168 -3 -185 34 -364 20 -93 13
-250 -15 -348 -11 -37 -25 -94 -31 -126 -7 -31 -23 -70 -35 -85 -62 -74 -125
-210 -126 -272 0 -14 9 -50 21 -80 11 -30 25 -67 31 -82 11 -31 1 -73 -38
-149 -30 -60 -107 -172 -157 -229 -71 -81 -72 -88 -30 -166 20 -38 51 -89 70
-113 38 -51 40 -64 13 -91 -19 -19 -32 -24 -100 -34 -20 -4 -68 -21 -106 -40
-75 -36 -223 -166 -444 -391 -58 -59 -115 -111 -127 -115 -12 -5 -68 -14 -125
-20 -112 -11 -163 -24 -190 -48 -23 -20 -24 -123 -1 -207 10 -37 16 -111 18
-195 2 -147 18 -213 73 -307 25 -42 33 -48 65 -51 47 -4 48 -3 91 211 20 99
44 187 58 212 61 116 184 244 328 342 59 40 325 181 420 223 175 77 325 152
362 182 34 26 43 30 59 20 10 -7 25 -12 32 -12 15 0 114 97 149 146 39 54 81
107 131 167 l49 57 38 -21 c21 -12 68 -52 103 -89 75 -77 166 -131 189 -112 8
6 27 38 43 69 55 110 74 133 111 133 47 0 84 -16 84 -38 0 -10 -16 -34 -36
-53 -124 -119 -204 -419 -190 -716 6 -136 5 -148 -23 -252 -36 -135 -57 -170
-131 -221 -65 -44 -97 -83 -106 -129 -8 -41 6 -57 126 -136 123 -81 179 -131
248 -223 73 -96 95 -112 171 -121 60 -7 62 -8 138 -88 91 -93 134 -113 248
-113 96 0 154 22 221 83 77 70 97 112 102 220 6 109 -9 164 -59 228 -74 93
-194 139 -312 120 -38 -6 -85 -20 -105 -30 -50 -26 -127 -107 -147 -153 -20
-49 -35 -42 -80 37 -56 100 -69 167 -62 325 9 247 79 471 239 772 175 328 199
388 206 504 6 112 -2 128 -109 236 -47 47 -79 87 -79 99 0 11 -5 30 -12 42
-37 70 -275 358 -331 401 -18 14 -61 38 -97 54 -85 38 -102 57 -91 103 5 18
12 93 15 164 4 89 14 162 31 230 14 55 25 107 25 116 0 9 16 47 37 85 65 122
95 222 133 434 14 75 29 122 44 132 6 4 34 8 61 8 28 0 82 7 120 16 39 9 97
19 130 21 51 4 65 10 93 36 l33 32 162 5 c137 4 167 8 198 25 212 118 256 139
321 151 67 13 124 36 217 89 64 36 71 44 71 80 0 44 -24 89 -67 124 -80 66
-129 50 -267 -91 l-100 -102 -180 -6 c-163 -5 -185 -8 -225 -29 -51 -27 -112
-23 -146 9 -16 15 -51 24 -139 35 -119 16 -226 49 -311 98 -52 30 -54 62 -6
94 34 23 35 25 36 96 1 59 6 82 29 125 17 32 31 75 34 105 3 39 13 63 38 96
43 56 46 110 9 146 -13 14 -29 25 -35 25 -6 0 -50 24 -97 52 -80 49 -90 53
-157 55 -39 1 -87 -2 -106 -6z"/>
<path d="M11540 4720 c-69 -8 -128 -39 -169 -90 -26 -33 -31 -47 -31 -95 0
-81 -10 -95 -70 -95 -106 0 -199 -21 -253 -57 -124 -83 -325 -136 -475 -125
-36 2 -82 -1 -109 -9 -88 -24 -157 -14 -208 31 -23 21 -163 76 -216 85 -57 10
-56 -11 1 -36 27 -12 50 -25 50 -29 0 -9 -51 -20 -91 -20 -24 0 -29 -4 -29
-24 0 -31 14 -41 80 -56 30 -7 66 -23 80 -35 36 -33 106 -71 186 -101 64 -25
80 -27 234 -28 174 -1 217 -10 207 -44 -26 -85 -188 -416 -219 -449 -13 -13
-38 -34 -56 -45 -49 -30 -53 -52 -26 -127 l23 -64 -44 -61 c-24 -34 -55 -72
-70 -86 -64 -60 -125 -242 -125 -375 0 -38 7 -113 15 -165 19 -125 19 -263 -1
-422 -14 -105 -15 -140 -5 -182 15 -65 49 -117 98 -147 46 -28 53 -37 53 -70
0 -19 -17 -40 -66 -84 -36 -32 -98 -95 -138 -140 -60 -69 -75 -94 -90 -147
-39 -137 -62 -199 -123 -342 -103 -239 -106 -243 -181 -265 -24 -7 -61 -28
-83 -48 l-39 -36 6 -66 c3 -36 12 -101 20 -145 8 -43 14 -117 14 -165 1 -120
12 -164 55 -227 38 -55 104 -104 141 -104 11 0 30 7 42 16 19 13 22 24 22 85
0 62 7 122 41 334 5 33 13 94 18 136 11 101 55 194 124 262 29 29 72 81 96
117 24 36 66 91 93 122 37 43 53 72 62 112 16 69 106 194 214 298 74 71 81 81
87 125 8 69 24 121 52 176 29 58 53 175 53 257 0 106 16 115 75 39 79 -102 86
-109 128 -119 34 -9 61 -31 140 -112 54 -56 104 -113 111 -127 7 -14 18 -58
25 -97 13 -78 51 -151 127 -248 32 -41 64 -67 121 -98 62 -34 103 -68 200
-168 213 -219 286 -325 296 -433 3 -32 15 -77 27 -101 18 -37 29 -47 77 -65
51 -20 58 -20 79 -6 13 8 36 15 52 15 16 0 35 7 42 15 7 9 42 32 77 51 52 30
70 35 99 30 27 -6 41 -2 61 13 14 12 40 21 58 21 18 0 38 6 44 14 6 8 26 20
44 27 18 7 51 28 74 46 32 26 43 43 48 75 12 70 5 73 -223 74 -250 0 -286 6
-367 58 -73 47 -171 154 -180 198 -9 40 -110 226 -173 320 -36 53 -63 82 -89
95 -38 18 -55 39 -138 165 -58 88 -81 135 -88 181 -3 22 -19 54 -37 75 -18 20
-50 66 -72 101 -32 52 -39 71 -35 100 3 27 -4 53 -28 101 -33 67 -66 144 -130
310 -21 52 -51 116 -67 142 -31 50 -58 125 -58 165 0 38 35 29 210 -57 111
-54 175 -80 199 -80 30 0 45 -9 99 -62 63 -63 70 -65 85 -23 2 5 20 -2 40 -18
59 -44 104 -33 93 24 -19 100 -100 181 -257 259 -46 23 -106 55 -134 72 -57
36 -235 206 -235 226 0 7 11 18 25 24 18 8 25 19 25 40 0 16 15 50 35 79 19
28 35 61 35 72 0 11 26 77 58 146 42 91 62 148 72 206 15 90 22 109 58 147 24
26 28 27 99 21 68 -6 75 -4 99 18 43 40 74 113 85 200 5 44 14 91 20 105 5 15
12 73 16 130 6 97 4 107 -18 149 -17 32 -33 48 -56 56 -17 5 -43 19 -57 30
-31 25 -96 36 -166 29z"/>
</g>
</svg>
