<?xml version="1.0" standalone="no"?>
<!DOCTYPE svg PUBLIC "-//W3C//DTD SVG 20010904//EN"
 "http://www.w3.org/TR/2001/REC-SVG-20010904/DTD/svg10.dtd">
<svg version="1.0" xmlns="http://www.w3.org/2000/svg"
 width="1211.000000pt" height="1280.000000pt" viewBox="0 0 1211.000000 1280.000000"
 preserveAspectRatio="xMidYMid meet">
<metadata>
Created by potrace 1.15, written by Peter Selinger 2001-2017
</metadata>
<g transform="translate(0.000000,1280.000000) scale(0.100000,-0.100000)"
fill="#e92020" stroke="none">
<path d="M1718 12790 c-203 -37 -446 -186 -510 -314 -17 -34 -43 -79 -57 -101
-37 -55 -49 -86 -71 -179 -35 -144 -21 -334 29 -405 10 -14 25 -68 34 -119 16
-99 34 -140 103 -242 63 -94 78 -160 79 -355 0 -160 0 -160 -32 -225 -17 -36
-34 -79 -38 -96 -3 -17 -22 -46 -41 -65 -20 -19 -64 -70 -99 -115 -87 -111
-156 -171 -293 -255 -158 -98 -248 -166 -321 -245 -141 -150 -180 -216 -232
-395 -40 -134 -50 -284 -24 -344 32 -75 34 -91 17 -156 -13 -55 -14 -80 -3
-189 25 -254 73 -414 155 -515 18 -22 36 -53 40 -70 4 -16 27 -97 51 -180 55
-192 60 -224 39 -311 -30 -127 -4 -309 68 -483 23 -56 50 -146 64 -214 15 -77
40 -158 73 -235 27 -64 52 -130 55 -146 9 -35 107 -235 203 -411 39 -71 81
-158 94 -193 12 -36 33 -71 47 -83 l25 -19 -18 -43 c-11 -23 -20 -43 -21 -45
-1 -1 -59 -9 -130 -17 -193 -22 -253 -44 -316 -120 -39 -47 -79 -132 -85 -184
-10 -88 50 -257 124 -349 34 -41 38 -43 82 -41 43 3 46 2 51 -25 5 -26 12 -30
90 -51 47 -12 127 -35 178 -51 l94 -29 -7 -96 c-5 -64 -3 -104 4 -117 10 -20
49 -35 154 -62 61 -16 97 -59 133 -157 15 -40 25 -75 22 -78 -2 -2 -58 -9
-123 -15 -290 -25 -342 -32 -404 -53 -57 -19 -68 -27 -84 -59 -28 -56 -39
-156 -28 -251 9 -72 48 -260 127 -596 34 -147 213 -559 327 -753 29 -51 92
-165 139 -253 47 -88 95 -177 107 -197 l22 -37 -103 -32 c-183 -56 -399 -106
-558 -129 -177 -25 -244 -39 -317 -69 -48 -19 -56 -19 -92 -6 -37 13 -46 12
-98 -6 -32 -11 -105 -33 -163 -50 -139 -40 -147 -44 -197 -113 -91 -123 -107
-273 -43 -403 36 -73 159 -206 220 -239 58 -31 142 -23 340 30 149 40 180 52
208 79 17 17 32 37 32 44 0 22 423 147 623 183 65 12 69 11 83 -8 30 -43 229
-95 544 -142 254 -38 314 -49 565 -111 110 -27 295 -66 410 -85 116 -19 284
-50 375 -69 91 -18 230 -43 310 -55 80 -12 246 -45 370 -75 357 -86 548 -115
1240 -190 179 -19 399 -46 490 -59 91 -14 199 -27 240 -31 125 -11 247 -32
537 -95 153 -32 382 -75 508 -95 127 -19 287 -46 357 -60 139 -27 324 -48 573
-65 88 -6 219 -15 292 -21 72 -6 259 -14 415 -19 155 -5 308 -14 339 -20 l55
-12 12 -82 c15 -104 62 -200 138 -284 62 -69 107 -95 232 -137 126 -41 119
-43 397 113 180 101 244 153 265 216 6 20 15 36 20 36 15 0 677 278 757 318
43 22 110 49 148 61 39 13 141 57 228 99 164 78 171 80 277 67 43 -6 69 -2
120 15 262 88 342 181 344 395 1 94 -1 105 -32 167 -102 207 -369 264 -639
137 -64 -31 -93 -52 -140 -103 -51 -56 -77 -74 -208 -142 -241 -125 -346 -175
-379 -181 -35 -6 -205 38 -241 61 l-23 15 46 98 c26 53 93 187 149 298 160
317 265 576 289 717 19 109 14 179 -21 288 -13 41 -33 116 -45 165 -24 104
-64 193 -157 349 -99 164 -164 248 -292 376 -129 128 -348 359 -613 645 -225
244 -386 392 -560 511 -36 25 -47 39 -53 70 -13 74 -77 260 -185 539 -60 154
-123 332 -140 395 -50 186 -102 265 -195 298 -45 16 -50 21 -61 62 -105 396
-267 993 -349 1285 -57 204 -133 487 -169 630 -35 143 -81 314 -101 380 -89
289 -117 384 -131 444 l-15 64 32 33 c18 18 42 49 53 68 12 18 60 92 107 162
170 253 216 364 324 789 45 174 57 240 60 315 3 81 8 104 34 161 37 77 62 186
54 234 -3 18 -18 49 -33 67 -26 31 -32 33 -88 33 -50 0 -65 -4 -85 -23 -31
-29 -81 -123 -96 -177 l-10 -40 -188 -1 c-201 -1 -262 -8 -583 -70 -335 -64
-417 -99 -482 -204 -36 -59 -267 -552 -291 -620 -121 -355 -200 -627 -201
-695 -1 -50 42 -177 87 -255 42 -74 128 -145 247 -205 61 -31 163 -45 197 -27
19 11 202 62 219 62 16 0 -62 -61 -110 -86 -43 -22 -58 -25 -105 -20 -31 3
-182 10 -336 15 -268 9 -542 30 -670 52 -92 15 -219 58 -270 90 -111 70 -112
206 -3 385 40 67 197 253 328 389 114 118 128 141 175 271 20 54 58 146 84
204 64 138 221 623 221 681 0 122 -125 201 -224 140 -39 -25 -58 -57 -96 -164
-16 -47 -63 -166 -104 -264 -41 -98 -93 -230 -116 -293 -57 -154 -92 -219
-165 -298 -146 -160 -364 -462 -449 -623 -66 -123 -79 -186 -75 -348 l4 -134
-93 -47 c-51 -26 -99 -53 -105 -59 -6 -6 -26 -11 -44 -11 -73 0 -130 -39 -303
-206 -86 -83 -119 -108 -183 -137 -44 -21 -137 -80 -210 -135 -204 -153 -227
-167 -242 -151 -8 8 -53 91 -101 184 -124 240 -161 292 -284 390 -66 53 -66
53 -95 150 -15 53 -57 155 -91 226 -35 71 -77 170 -94 220 -40 115 -65 174
-90 208 -17 25 -18 34 -8 102 14 96 -1 250 -41 414 -55 223 -129 390 -224 506
-52 62 -106 98 -299 196 -25 13 -106 31 -281 64 -103 19 -148 83 -148 210 -1
103 23 171 71 210 52 42 68 87 80 232 15 167 24 202 81 298 56 97 59 116 24
214 -31 88 -31 120 0 187 32 68 31 97 -5 246 -37 152 -38 178 -4 213 22 23 26
36 25 88 0 112 -68 213 -195 290 -73 44 -272 124 -376 150 -95 24 -259 35
-332 21z m5798 -4795 c5 -18 0 -20 -45 -21 -28 -1 -57 -7 -66 -14 -13 -11 -18
-7 -32 29 -15 38 -19 41 -55 41 -44 0 -84 -18 -113 -50 -14 -16 -16 -24 -7
-27 6 -3 12 -13 12 -24 0 -13 -18 -27 -64 -48 -36 -16 -72 -40 -81 -55 -17
-25 -17 -29 3 -80 13 -34 17 -58 11 -67 -14 -23 -10 -71 10 -116 21 -45 45
-63 85 -63 27 0 29 -4 26 -57 -2 -34 14 -71 38 -89 12 -9 10 -13 -11 -27 -14
-9 -30 -32 -36 -50 -10 -30 -3 -68 58 -318 38 -156 88 -361 110 -456 55 -231
65 -252 135 -291 73 -42 113 -41 227 3 50 19 100 35 110 35 10 0 19 5 19 10 0
6 24 10 54 10 l53 0 33 -127 c18 -71 43 -155 56 -187 13 -33 24 -60 24 -62 0
-1 -54 -25 -119 -55 l-120 -52 -24 -56 c-14 -31 -28 -66 -32 -78 -8 -27 -1
-27 -100 -7 -52 11 -140 17 -250 19 -152 2 -175 4 -212 23 -23 12 -56 22 -73
22 -17 0 -48 9 -70 20 -22 11 -50 20 -64 20 -21 0 -31 13 -66 78 -46 88 -110
271 -141 400 -39 169 -109 540 -109 581 0 23 -4 49 -9 59 -5 9 -21 85 -36 167
-34 184 -106 479 -141 583 -15 42 -48 118 -74 167 -34 64 -53 115 -65 175 -19
94 -37 145 -63 173 -17 19 -15 19 53 14 118 -10 908 -28 941 -22 32 6 108 77
134 125 11 21 15 12 47 -106 19 -71 37 -138 39 -149z m-3978 -410 c86 -94 91
-105 53 -105 -59 0 -127 89 -145 190 l-6 35 17 -25 c10 -13 46 -56 81 -95z
m2323 -1105 c70 -69 110 -115 115 -135 4 -16 13 -39 21 -51 7 -11 26 -56 42
-100 39 -107 90 -224 166 -380 34 -71 80 -177 100 -235 21 -57 65 -156 98
-220 67 -130 74 -170 42 -254 -28 -71 -16 -148 38 -255 l44 -87 -31 -19 c-65
-38 -262 -232 -325 -320 -70 -98 -125 -206 -142 -281 -6 -27 -21 -61 -33 -76
l-21 -26 -77 24 c-43 14 -116 32 -162 41 l-85 17 -72 156 c-87 187 -146 327
-204 480 -41 107 -42 115 -29 147 18 43 18 108 -2 217 -18 105 -47 187 -74
212 -23 20 -36 85 -45 214 -3 52 -13 110 -21 129 -8 19 -13 37 -11 39 2 2 78
10 167 18 90 9 165 16 166 18 7 7 54 184 72 272 31 151 36 198 23 252 -9 38
-8 72 4 162 8 63 15 151 15 195 l0 81 56 -65 c31 -36 105 -112 165 -170z
m2094 -170 c-3 -5 -15 -10 -26 -10 -11 0 -17 5 -14 10 3 6 15 10 26 10 11 0
17 -4 14 -10z m-166 -34 c-2 -2 -33 -15 -69 -29 -82 -31 -146 -42 -155 -28 -3
6 2 11 12 11 10 1 54 12 98 25 73 22 125 31 114 21z m-6759 -511 c-33 -19 -46
-19 -30 0 7 8 22 15 34 15 20 -1 20 -2 -4 -15z m6024 -2480 c34 -35 28 -74
-11 -75 -32 0 -67 63 -46 83 11 12 41 8 57 -8z"/>
</g>
</svg>
